REM DIRINDEX 1\2,1\3,1\4
REM DIRNAME folder01,folder02,folder03,folder04
TITLE ""
FILE "153 153_TOEFL_3900.mp3" MP3
  TRACK 01 AUDIO
    TITLE "2:cjc151_6663"
    INDEX 01 00:00:00
  TRACK 02 AUDIO
    TITLE "0:"
    INDEX 01 00:01:28
  TRACK 03 AUDIO
    TITLE "3:cjc151_6664"
    INDEX 01 00:03:06
  TRACK 04 AUDIO
    TITLE "0:"
    INDEX 01 00:06:73
  TRACK 05 AUDIO
    TITLE "2:cjc151_6665"
    INDEX 01 00:08:52
  TRACK 06 AUDIO
    TITLE "0:"
    INDEX 01 00:09:61
  TRACK 07 AUDIO
    TITLE "3:cjc151_6666"
    INDEX 01 00:11:39
  TRACK 08 AUDIO
    TITLE "0:"
    INDEX 01 00:16:10
  TRACK 09 AUDIO
    TITLE "2:cjc151_6667"
    INDEX 01 00:17:69
  TRACK 10 AUDIO
    TITLE "0:"
    INDEX 01 00:19:05
  TRACK 11 AUDIO
    TITLE "3:cjc151_6668"
    INDEX 01 00:20:57
  TRACK 12 AUDIO
    TITLE "0:"
    INDEX 01 00:24:53
  TRACK 13 AUDIO
    TITLE "2:cjc151_6669"
    INDEX 01 00:26:26
  TRACK 14 AUDIO
    TITLE "0:"
    INDEX 01 00:27:41
  TRACK 15 AUDIO
    TITLE "3:cjc151_6670"
    INDEX 01 00:29:19
  TRACK 16 AUDIO
    TITLE "0:"
    INDEX 01 00:34:02
  TRACK 17 AUDIO
    TITLE "2:cjc151_6671"
    INDEX 01 00:35:57
  TRACK 18 AUDIO
    TITLE "0:"
    INDEX 01 00:36:58
  TRACK 19 AUDIO
    TITLE "3:cjc151_6672"
    INDEX 01 00:38:37
  TRACK 20 AUDIO
    TITLE "0:"
    INDEX 01 00:42:53
  TRACK 21 AUDIO
    TITLE "2:cjc151_6673"
    INDEX 01 00:44:32
  TRACK 22 AUDIO
    TITLE "0:"
    INDEX 01 00:45:61
  TRACK 23 AUDIO
    TITLE "3:cjc151_6674"
    INDEX 01 00:47:40
  TRACK 24 AUDIO
    TITLE "0:"
    INDEX 01 00:51:48
  TRACK 25 AUDIO
    TITLE "2:cjc151_6675"
    INDEX 01 00:53:25
  TRACK 26 AUDIO
    TITLE "0:"
    INDEX 01 00:54:52
  TRACK 27 AUDIO
    TITLE "3:cjc151_6676"
    INDEX 01 00:56:29
  TRACK 28 AUDIO
    TITLE "0:"
    INDEX 01 01:00:41
  TRACK 29 AUDIO
    TITLE "2:cjc151_6677"
    INDEX 01 01:02:18
  TRACK 30 AUDIO
    TITLE "0:"
    INDEX 01 01:03:63
  TRACK 31 AUDIO
    TITLE "3:cjc151_6678"
    INDEX 01 01:05:42
  TRACK 32 AUDIO
    TITLE "0:"
    INDEX 01 01:09:57
  TRACK 33 AUDIO
    TITLE "2:cjc151_6679"
    INDEX 01 01:11:37
  TRACK 34 AUDIO
    TITLE "0:"
    INDEX 01 01:12:50
  TRACK 35 AUDIO
    TITLE "3:cjc151_6680"
    INDEX 01 01:14:29
  TRACK 36 AUDIO
    TITLE "0:"
    INDEX 01 01:19:01
  TRACK 37 AUDIO
    TITLE "2:cjc151_6681"
    INDEX 01 01:20:53
  TRACK 38 AUDIO
    TITLE "0:"
    INDEX 01 01:21:49
  TRACK 39 AUDIO
    TITLE "3:cjc151_6682"
    INDEX 01 01:23:26
  TRACK 40 AUDIO
    TITLE "0:"
    INDEX 01 01:27:40
  TRACK 41 AUDIO
    TITLE "2:cjc151_6683"
    INDEX 01 01:29:19
  TRACK 42 AUDIO
    TITLE "0:"
    INDEX 01 01:30:24
  TRACK 43 AUDIO
    TITLE "3:cjc151_6684"
    INDEX 01 01:32:02
  TRACK 44 AUDIO
    TITLE "0:"
    INDEX 01 01:36:19
  TRACK 45 AUDIO
    TITLE "2:cjc151_6685"
    INDEX 01 01:37:73
  TRACK 46 AUDIO
    TITLE "0:"
    INDEX 01 01:39:19
  TRACK 47 AUDIO
    TITLE "3:cjc151_6686"
    INDEX 01 01:40:74
  TRACK 48 AUDIO
    TITLE "0:"
    INDEX 01 01:45:55
  TRACK 49 AUDIO
    TITLE "2:cjc151_6687"
    INDEX 01 01:47:33
  TRACK 50 AUDIO
    TITLE "0:"
    INDEX 01 01:48:40
  TRACK 51 AUDIO
    TITLE "3:cjc151_6688"
    INDEX 01 01:50:19
  TRACK 52 AUDIO
    TITLE "0:"
    INDEX 01 01:54:15
  TRACK 53 AUDIO
    TITLE "2:cjc151_6689"
    INDEX 01 01:55:62
  TRACK 54 AUDIO
    TITLE "0:"
    INDEX 01 01:57:09
  TRACK 55 AUDIO
    TITLE "3:cjc151_6690"
    INDEX 01 01:58:62
  TRACK 56 AUDIO
    TITLE "0:"
    INDEX 01 02:03:34
  TRACK 57 AUDIO
    TITLE "2:cjc151_6691"
    INDEX 01 02:05:09
  TRACK 58 AUDIO
    TITLE "0:"
    INDEX 01 02:06:28
  TRACK 59 AUDIO
    TITLE "3:cjc151_6692"
    INDEX 01 02:08:03
  TRACK 60 AUDIO
    TITLE "0:"
    INDEX 01 02:12:46
  TRACK 61 AUDIO
    TITLE "2:cjc151_6693"
    INDEX 01 02:14:30
  TRACK 62 AUDIO
    TITLE "0:"
    INDEX 01 02:15:68
  TRACK 63 AUDIO
    TITLE "3:cjc151_6694"
    INDEX 01 02:17:44
  TRACK 64 AUDIO
    TITLE "0:"
    INDEX 01 02:21:73
  TRACK 65 AUDIO
    TITLE "2:cjc151_6695"
    INDEX 01 02:23:52
  TRACK 66 AUDIO
    TITLE "0:"
    INDEX 01 02:24:65
  TRACK 67 AUDIO
    TITLE "3:cjc151_6696"
    INDEX 01 02:26:44
  TRACK 68 AUDIO
    TITLE "0:"
    INDEX 01 02:30:13
  TRACK 69 AUDIO
    TITLE "2:cjc151_6697"
    INDEX 01 02:31:67
  TRACK 70 AUDIO
    TITLE "0:"
    INDEX 01 02:33:37
  TRACK 71 AUDIO
    TITLE "3:cjc151_6698"
    INDEX 01 02:35:14
  TRACK 72 AUDIO
    TITLE "0:"
    INDEX 01 02:39:26
  TRACK 73 AUDIO
    TITLE "2:cjc151_6699"
    INDEX 01 02:41:05
  TRACK 74 AUDIO
    TITLE "0:"
    INDEX 01 02:42:47
  TRACK 75 AUDIO
    TITLE "3:cjc151_6700"
    INDEX 01 02:44:25
  TRACK 76 AUDIO
    TITLE "0:"
    INDEX 01 02:49:30
  TRACK 77 AUDIO
    TITLE "2:cjc151_6701"
    INDEX 01 02:51:09
  TRACK 78 AUDIO
    TITLE "0:"
    INDEX 01 02:52:52
  TRACK 79 AUDIO
    TITLE "3:cjc151_6702"
    INDEX 01 02:54:27
  TRACK 80 AUDIO
    TITLE "0:"
    INDEX 01 02:58:31
  TRACK 81 AUDIO
    TITLE "2:cjc151_6703"
    INDEX 01 03:00:10
  TRACK 82 AUDIO
    TITLE "0:"
    INDEX 01 03:01:31
  TRACK 83 AUDIO
    TITLE "3:cjc151_6704"
    INDEX 01 03:03:08
  TRACK 84 AUDIO
    TITLE "0:"
    INDEX 01 03:07:32
  TRACK 85 AUDIO
    TITLE "2:cjc151_6705"
    INDEX 01 03:09:19
  TRACK 86 AUDIO
    TITLE "0:"
    INDEX 01 03:10:28
  TRACK 87 AUDIO
    TITLE "3:cjc151_6706"
    INDEX 01 03:12:07
  TRACK 88 AUDIO
    TITLE "0:"
    INDEX 01 03:15:59
